<svg xmlns="http://www.w3.org/2000/svg" width="25" height="15" viewBox="0 0 25 15" fill="none">
    <path d="M23.6714 6.69085C24.0921 7.15996 24.0921 7.84004 23.6714 8.30916C22.746 9.34101 21.1924 10.8971 19.2399 12.1921C17.2843 13.4892 14.9657 14.5 12.5 14.5C10.0343 14.5 7.71566 13.4892 5.76007 12.1921C3.80763 10.8971 2.25396 9.34101 1.3286 8.30915C0.907894 7.84004 0.907894 7.15996 1.3286 6.69084C2.25396 5.65899 3.80763 4.10291 5.76008 2.80788C7.71566 1.51078 10.0343 0.5 12.5 0.5C14.9657 0.5 17.2843 1.51078 19.2399 2.80788C21.1924 4.10291 22.746 5.65899 23.6714 6.69085Z" stroke="currentColor" />
    <circle cx="12.5" cy="7.5" r="3" stroke="currentColor" />
</svg>
